<!DOCTYPE svg PUBLIC "-//W3C//DTD SVG 20010904//EN"
  "http://www.w3.org/TR/2001/REC-SVG-20010904/DTD/svg10.dtd">
<svg version="1.0" xmlns="http://www.w3.org/2000/svg"
  width="20.000000pt" height="20.000000pt" viewBox="0 0 500.000000 500.000000"
  preserveAspectRatio="xMidYMid meet">
  <metadata>
    Created by potrace 1.14, written by Peter Selinger 2001-2017
  </metadata>
  <g transform="translate(0.000000,500.000000) scale(0.100000,-0.100000)"
    fill="#000000" stroke="none">
    <path d="M2330 4954 c-19 -2 -78 -9 -130 -15 -851 -97 -1616 -671 -1958 -1469
-137 -318 -196 -614 -196 -970 0 -215 10 -318 50 -511 161 -771 706 -1435
1434 -1747 912 -391 1958 -199 2679 492 185 178 378 443 494 678 342 696 342
1480 0 2176 -357 727 -1052 1228 -1868 1348 -97 14 -435 26 -505 18z m371
-374 c473 -48 914 -253 1257 -584 288 -278 508 -679 587 -1071 94 -465 38
-911 -164 -1330 -211 -436 -540 -765 -976 -976 -227 -109 -453 -173 -704 -199
-603 -60 -1215 155 -1659 584 -288 278 -508 679 -587 1071 -94 465 -38 911
164 1330 211 436 540 765 976 976 348 168 730 237 1106 199z"/>
    <path d="M1686 3799 c-117 -13 -211 -38 -292 -78 -196 -95 -274 -231 -295
-511 -6 -81 -9 -444 -7 -901 4 -682 6 -770 21 -822 24 -80 48 -125 101 -184
60 -66 128 -109 224 -141 65 -21 96 -25 202 -26 185 -1 303 42 409 146 l51 52
0 -72 0 -72 205 0 205 0 0 695 0 695 -385 0 -385 0 2 -192 3 -193 143 -3 142
-3 0 -267 c0 -299 -5 -325 -71 -375 -65 -49 -204 -61 -278 -22 -40 20 -79 69
-91 115 -7 27 -10 298 -8 837 3 795 3 798 25 838 43 81 105 115 208 115 93 0
163 -33 198 -95 8 -12 14 -94 17 -215 l5 -195 238 -3 237 -2 0 233 c0 312 -18
379 -132 488 -131 126 -414 191 -692 158z"/>
    <path d="M2750 2470 l0 -1280 240 0 240 0 0 570 0 570 365 0 365 0 0 190 0
190 -365 0 -365 0 0 320 0 320 390 0 390 0 0 200 0 200 -630 0 -630 0 0 -1280z"/>
  </g>
</svg>
