<?xml version="1.0"?>
<svg xmlns="http://www.w3.org/2000/svg" viewBox="0 0 26 26" enable-background="new 0 0 26 26"
  width="20pt" height="20pt">
  <path
    d="M 4.40625 0.0625 C 4.036875 0.1075 3.67975 0.34325 3.71875 0.78125 C 3.95675 2.05725 5.4405 7.65 15.0625 12.125 C 9.2565 10.55 6.2935 7.19825 5.8125 6.65625 C 5.5405 6.78725 4.62475 7.5525 4.34375 9.0625 C 3.76975 12.1585 11.173 18.5425 21 14.0625 C 18.761 12.8225 17.708 6.3425 12.875 3.1875 C 8.586 0.3875 6.87325 4.04025 7.03125 5.15625 C 5.25725 3.07325 5.44375 1.808 5.21875 0.5 C 5.16125 0.164 4.775625 0.0175 4.40625 0.0625 z M 19.15625 9.5625 C 19.23025 9.7055 19.303 9.82975 19.375 9.96875 C 19.727 10.65275 20.07325 11.321 20.40625 11.875 C 22.76825 12.534 24 13.425 24 14 C 24 15.019 20.117 17 13 17 C 5.883 17 2 15.019 2 14 C 2 13.528 2.8365 12.843 4.4375 12.25 C 3.9885 11.659 3.68 11.08 3.5 10.5 C 1.388 11.332 5.9211895e-16 12.495 0 14 C 0 19.051 4.26375 23.07825 4.71875 23.53125 C 5.76275 24.56825 8.431 26 13 26 C 17.569 26 20.23725 24.56825 21.28125 23.53125 C 21.73625 23.07825 26 19.015 26 14 C 26 11.795 23.05325 10.3085 19.15625 9.5625 z"/>
</svg>
